<mxfile host="65bd71144e">
    <diagram id="P3JAaZjUcmT-iTAm8GYp" name="Page-1">
        <mxGraphModel dx="618" dy="355" grid="0" gridSize="10" guides="1" tooltips="1" connect="1" arrows="1" fold="1" page="1" pageScale="1" pageWidth="850" pageHeight="1100" math="0" shadow="0">
            <root>
                <mxCell id="0"/>
                <mxCell id="1" parent="0"/>
                <mxCell id="2" value="chage link" style="rounded=1;whiteSpace=wrap;html=1;" parent="1" vertex="1">
                    <mxGeometry x="34" y="69" width="120" height="60" as="geometry"/>
                </mxCell>
                <mxCell id="6" style="edgeStyle=none;html=1;" parent="1" source="3" target="5" edge="1">
                    <mxGeometry relative="1" as="geometry"/>
                </mxCell>
                <mxCell id="3" value="TH1: Load trang no path" style="whiteSpace=wrap;html=1;rounded=1;" parent="1" vertex="1">
                    <mxGeometry x="22" y="154" width="120" height="60" as="geometry"/>
                </mxCell>
                <mxCell id="8" value="" style="edgeStyle=none;html=1;" parent="1" source="5" edge="1">
                    <mxGeometry relative="1" as="geometry">
                        <mxPoint x="412" y="184" as="targetPoint"/>
                        <Array as="points"/>
                    </mxGeometry>
                </mxCell>
                <mxCell id="5" value="get trang chủ&lt;br&gt;trang chủ nhận về link&lt;br&gt;lưu trong redux&lt;br&gt;" style="whiteSpace=wrap;html=1;rounded=1;" parent="1" vertex="1">
                    <mxGeometry x="190" y="155" width="165" height="59" as="geometry"/>
                </mxCell>
                <mxCell id="7" value="thay đổi nội dung" style="whiteSpace=wrap;html=1;rounded=1;" parent="1" vertex="1">
                    <mxGeometry x="384.25" y="265" width="187.5" height="60" as="geometry"/>
                </mxCell>
                <mxCell id="10" value="thay đổii link&lt;br&gt;&lt;div style=&quot;color: rgb(212 , 212 , 212)&quot;&gt;&amp;nbsp; &amp;nbsp;&lt;span style=&quot;color: rgb(156 , 220 , 254)&quot;&gt;&quot;url&quot;&lt;/span&gt;&lt;span style=&quot;color: rgb(220 , 220 , 220)&quot;&gt;:&lt;/span&gt;&amp;nbsp;&lt;span style=&quot;color: rgb(206 , 145 , 120)&quot;&gt;&quot;newLink&quot;&lt;/span&gt;&lt;span style=&quot;color: rgb(220 , 220 , 220)&quot;&gt;,&lt;/span&gt;&lt;/div&gt;&lt;div&gt;&lt;font color=&quot;#d4d4d4&quot;&gt;&amp;nbsp; &amp;nbsp;&lt;/font&gt;&lt;span style=&quot;color: rgb(156 , 220 , 254)&quot;&gt;&quot;note&quot;&lt;/span&gt;&lt;span style=&quot;color: rgb(220 , 220 , 220)&quot;&gt;:&lt;/span&gt;&lt;font color=&quot;#d4d4d4&quot;&gt;&amp;nbsp;&lt;/font&gt;&lt;font color=&quot;#ce9178&quot;&gt;null&lt;/font&gt;&lt;span style=&quot;color: rgb(220 , 220 , 220)&quot;&gt;,&lt;/span&gt;&lt;/div&gt;&lt;div style=&quot;color: rgb(212 , 212 , 212)&quot;&gt;&amp;nbsp;&amp;nbsp;&amp;nbsp;&lt;span style=&quot;color: rgb(156 , 220 , 254)&quot;&gt;&quot;password&quot;&lt;/span&gt;&lt;span style=&quot;color: rgb(220 , 220 , 220)&quot;&gt;:&lt;/span&gt;&amp;nbsp;&lt;span style=&quot;color: rgb(206 , 145 , 120)&quot;&gt;null&lt;/span&gt;&lt;span style=&quot;color: rgb(220 , 220 , 220)&quot;&gt;,&lt;/span&gt;&lt;/div&gt;&lt;div style=&quot;color: rgb(212 , 212 , 212)&quot;&gt;&amp;nbsp;&amp;nbsp;&amp;nbsp;&amp;nbsp;&lt;span style=&quot;color: rgb(156 , 220 , 254)&quot;&gt;&quot;setPassword&quot;&lt;/span&gt;&lt;span style=&quot;color: rgb(220 , 220 , 220)&quot;&gt;:&lt;/span&gt;&amp;nbsp;&lt;span style=&quot;color: rgb(206 , 145 , 120)&quot;&gt;false&lt;/span&gt;&lt;/div&gt;" style="rounded=1;whiteSpace=wrap;html=1;align=left;" parent="1" vertex="1">
                    <mxGeometry x="144" y="262" width="188" height="86" as="geometry"/>
                </mxCell>
                <mxCell id="13" style="edgeStyle=none;html=1;exitX=0;exitY=1;exitDx=0;exitDy=0;entryX=0.5;entryY=0;entryDx=0;entryDy=0;" parent="1" source="11" target="10" edge="1">
                    <mxGeometry relative="1" as="geometry"/>
                </mxCell>
                <mxCell id="14" style="edgeStyle=none;html=1;" parent="1" source="11" target="7" edge="1">
                    <mxGeometry relative="1" as="geometry"/>
                </mxCell>
                <mxCell id="16" style="edgeStyle=none;html=1;exitX=1;exitY=1;exitDx=0;exitDy=0;entryX=0.5;entryY=0;entryDx=0;entryDy=0;" parent="1" source="11" target="15" edge="1">
                    <mxGeometry relative="1" as="geometry"/>
                </mxCell>
                <mxCell id="11" value="tạo 1 trang thái note lưu trong redux&lt;br&gt;&lt;div style=&quot;background-color: rgb(30 , 30 , 30) ; line-height: 18px&quot;&gt;&lt;div style=&quot;color: rgb(212 , 212 , 212)&quot;&gt;&amp;nbsp; &amp;nbsp; &amp;nbsp; &amp;nbsp; &lt;span style=&quot;color: rgb(156 , 220 , 254)&quot;&gt;&quot;url&quot;&lt;/span&gt;&lt;span style=&quot;color: rgb(220 , 220 , 220)&quot;&gt;:&lt;/span&gt;&amp;nbsp;&lt;span style=&quot;color: rgb(206 , 145 , 120)&quot;&gt;&quot;randomURL&quot;&lt;/span&gt;&lt;span style=&quot;color: rgb(220 , 220 , 220)&quot;&gt;,&lt;/span&gt;&lt;/div&gt;&lt;div&gt;&lt;font color=&quot;#d4d4d4&quot;&gt;&amp;nbsp;&amp;nbsp;&amp;nbsp;&amp;nbsp;&amp;nbsp;&amp;nbsp;&amp;nbsp;&amp;nbsp;&lt;/font&gt;&lt;span style=&quot;color: rgb(156 , 220 , 254)&quot;&gt;&quot;note&quot;&lt;/span&gt;&lt;span style=&quot;color: rgb(220 , 220 , 220)&quot;&gt;:&lt;/span&gt;&lt;font color=&quot;#d4d4d4&quot;&gt;&amp;nbsp;&lt;/font&gt;&lt;font color=&quot;#ce9178&quot;&gt;null&lt;/font&gt;&lt;span style=&quot;color: rgb(220 , 220 , 220)&quot;&gt;,&lt;/span&gt;&lt;/div&gt;&lt;div style=&quot;color: rgb(212 , 212 , 212)&quot;&gt;&amp;nbsp;&amp;nbsp;&amp;nbsp;&amp;nbsp;&amp;nbsp;&amp;nbsp;&amp;nbsp;&amp;nbsp;&lt;span style=&quot;color: #9cdcfe&quot;&gt;&quot;password&quot;&lt;/span&gt;&lt;span style=&quot;color: #dcdcdc&quot;&gt;:&lt;/span&gt;&amp;nbsp;&lt;span style=&quot;color: #ce9178&quot;&gt;null&lt;/span&gt;&lt;span style=&quot;color: #dcdcdc&quot;&gt;,&lt;/span&gt;&lt;/div&gt;&lt;div style=&quot;color: rgb(212 , 212 , 212)&quot;&gt;&amp;nbsp;&amp;nbsp;&amp;nbsp;&amp;nbsp;&amp;nbsp;&amp;nbsp;&amp;nbsp;&amp;nbsp;&lt;span style=&quot;color: #9cdcfe&quot;&gt;&quot;setPassword&quot;&lt;/span&gt;&lt;span style=&quot;color: #dcdcdc&quot;&gt;:&lt;/span&gt;&amp;nbsp;&lt;span style=&quot;color: #ce9178&quot;&gt;false&lt;/span&gt;&lt;/div&gt;&lt;/div&gt;" style="whiteSpace=wrap;html=1;rounded=1;align=left;" parent="1" vertex="1">
                    <mxGeometry x="413" y="141" width="263" height="98" as="geometry"/>
                </mxCell>
                <mxCell id="15" value="thêm pass" style="whiteSpace=wrap;html=1;rounded=1;" parent="1" vertex="1">
                    <mxGeometry x="593" y="265" width="187.5" height="60" as="geometry"/>
                </mxCell>
                <mxCell id="19" value="" style="edgeStyle=none;html=1;" parent="1" source="17" edge="1">
                    <mxGeometry relative="1" as="geometry">
                        <mxPoint x="207" y="430" as="targetPoint"/>
                    </mxGeometry>
                </mxCell>
                <mxCell id="17" value="path" style="rounded=1;whiteSpace=wrap;html=1;" parent="1" vertex="1">
                    <mxGeometry x="7" y="400" width="120" height="60" as="geometry"/>
                </mxCell>
                <mxCell id="22" value="" style="edgeStyle=none;html=1;" parent="1" source="20" target="21" edge="1">
                    <mxGeometry relative="1" as="geometry"/>
                </mxCell>
                <mxCell id="24" value="" style="edgeStyle=none;html=1;" parent="1" source="20" target="23" edge="1">
                    <mxGeometry relative="1" as="geometry"/>
                </mxCell>
                <mxCell id="20" value="&#10;&#10;&lt;span style=&quot;color: rgb(240, 240, 240); font-family: helvetica; font-size: 12px; font-style: normal; font-weight: 400; letter-spacing: normal; text-align: center; text-indent: 0px; text-transform: none; word-spacing: 0px; background-color: rgb(42, 42, 42); display: inline; float: none;&quot;&gt;dung path goi lên server&lt;/span&gt;&#10;&#10;" style="rhombus;whiteSpace=wrap;html=1;" parent="1" vertex="1">
                    <mxGeometry x="204" y="360" width="178" height="140" as="geometry"/>
                </mxCell>
                <mxCell id="21" value="có thì trả về nội dung" style="whiteSpace=wrap;html=1;" parent="1" vertex="1">
                    <mxGeometry x="491" y="400" width="120" height="60" as="geometry"/>
                </mxCell>
                <mxCell id="23" value="lưu vao trong redux" style="whiteSpace=wrap;html=1;" parent="1" vertex="1">
                    <mxGeometry x="233" y="566" width="120" height="60" as="geometry"/>
                </mxCell>
                <mxCell id="27" value="" style="edgeStyle=none;html=1;" parent="1" source="25" target="26" edge="1">
                    <mxGeometry relative="1" as="geometry"/>
                </mxCell>
                <mxCell id="25" value="add password" style="rounded=1;whiteSpace=wrap;html=1;" parent="1" vertex="1">
                    <mxGeometry x="11" y="703" width="120" height="60" as="geometry"/>
                </mxCell>
                <mxCell id="29" value="" style="edgeStyle=none;html=1;" parent="1" source="26" edge="1">
                    <mxGeometry relative="1" as="geometry">
                        <mxPoint x="411" y="733" as="targetPoint"/>
                    </mxGeometry>
                </mxCell>
                <mxCell id="26" value="put vao csdl" style="whiteSpace=wrap;html=1;rounded=1;" parent="1" vertex="1">
                    <mxGeometry x="211" y="703" width="120" height="60" as="geometry"/>
                </mxCell>
                <mxCell id="32" value="" style="edgeStyle=none;html=1;" parent="1" source="30" target="31" edge="1">
                    <mxGeometry relative="1" as="geometry"/>
                </mxCell>
                <mxCell id="30" value="get về&lt;br&gt;1) lưu cooki trong máy&amp;nbsp;&lt;br&gt;2) chưa lưu cookie" style="rhombus;whiteSpace=wrap;html=1;" parent="1" vertex="1">
                    <mxGeometry x="409" y="675" width="177" height="116" as="geometry"/>
                </mxCell>
                <mxCell id="34" value="" style="edgeStyle=none;html=1;" parent="1" source="31" target="33" edge="1">
                    <mxGeometry relative="1" as="geometry"/>
                </mxCell>
                <mxCell id="31" value="gơ pass&lt;br&gt;nêu lưu trong&amp;nbsp; máy thì gõ được" style="whiteSpace=wrap;html=1;" parent="1" vertex="1">
                    <mxGeometry x="632" y="693.5" width="184.5" height="79" as="geometry"/>
                </mxCell>
                <mxCell id="33" value="delete pass&lt;br&gt;kha nang tao bang moi" style="whiteSpace=wrap;html=1;" parent="1" vertex="1">
                    <mxGeometry x="658.63" y="824" width="131.25" height="60" as="geometry"/>
                </mxCell>
                <mxCell id="38" value="" style="edgeStyle=none;html=1;" edge="1" parent="1" source="35">
                    <mxGeometry relative="1" as="geometry">
                        <mxPoint x="211" y="916" as="targetPoint"/>
                    </mxGeometry>
                </mxCell>
                <mxCell id="35" value="tạo 1 bảng hoặc thêm trường được phép xem" style="rounded=1;whiteSpace=wrap;html=1;" vertex="1" parent="1">
                    <mxGeometry x="11" y="886" width="120" height="60" as="geometry"/>
                </mxCell>
                <mxCell id="36" value="" style="shape=cylinder3;whiteSpace=wrap;html=1;boundedLbl=1;backgroundOutline=1;size=15;" vertex="1" parent="1">
                    <mxGeometry x="37" y="794" width="60" height="80" as="geometry"/>
                </mxCell>
                <mxCell id="39" value="get note&lt;br&gt;" style="text;html=1;align=center;verticalAlign=middle;resizable=0;points=[];autosize=1;strokeColor=none;fillColor=none;" vertex="1" parent="1">
                    <mxGeometry x="134" y="898" width="53" height="18" as="geometry"/>
                </mxCell>
                <mxCell id="42" value="" style="edgeStyle=none;html=1;" edge="1" parent="1" source="40">
                    <mxGeometry relative="1" as="geometry">
                        <mxPoint x="350" y="917" as="targetPoint"/>
                        <Array as="points">
                            <mxPoint x="350" y="917"/>
                        </Array>
                    </mxGeometry>
                </mxCell>
                <mxCell id="46" value="" style="edgeStyle=none;html=1;" edge="1" parent="1" source="40" target="45">
                    <mxGeometry relative="1" as="geometry"/>
                </mxCell>
                <mxCell id="40" value="gặp pass" style="rhombus;whiteSpace=wrap;html=1;" vertex="1" parent="1">
                    <mxGeometry x="209" y="876" width="80" height="80" as="geometry"/>
                </mxCell>
                <mxCell id="43" value="nhập pass&lt;br&gt;thành công&lt;br&gt;" style="text;html=1;align=center;verticalAlign=middle;resizable=0;points=[];autosize=1;strokeColor=none;fillColor=none;" vertex="1" parent="1">
                    <mxGeometry x="285" y="879" width="70" height="32" as="geometry"/>
                </mxCell>
                <mxCell id="44" value="&#10;&#10;&lt;span style=&quot;color: rgb(240, 240, 240); font-family: helvetica; font-size: 12px; font-style: normal; font-weight: 400; letter-spacing: normal; text-align: center; text-indent: 0px; text-transform: none; word-spacing: 0px; background-color: rgb(42, 42, 42); display: inline; float: none;&quot;&gt;Hiển thị ra note dạng có thể chỉnh sửa thêm ổ khóa&lt;/span&gt;&#10;&#10;" style="rounded=1;whiteSpace=wrap;html=1;" vertex="1" parent="1">
                    <mxGeometry x="499" y="884" width="120" height="60" as="geometry"/>
                </mxCell>
                <mxCell id="45" value="thông báo lỗi bắt nhập lại" style="rounded=1;whiteSpace=wrap;html=1;" vertex="1" parent="1">
                    <mxGeometry x="192" y="988" width="120" height="60" as="geometry"/>
                </mxCell>
                <mxCell id="48" value="sai pass&amp;nbsp;" style="text;html=1;align=center;verticalAlign=middle;resizable=0;points=[];autosize=1;strokeColor=none;fillColor=none;" vertex="1" parent="1">
                    <mxGeometry x="249" y="958" width="57" height="18" as="geometry"/>
                </mxCell>
                <mxCell id="49" value="vấn đề gủi pass lên dùng gì và thay đổi cái gì" style="shape=card;whiteSpace=wrap;html=1;" vertex="1" parent="1">
                    <mxGeometry x="17" y="968" width="171" height="100" as="geometry"/>
                </mxCell>
                <mxCell id="50" value="post&lt;br&gt;URL&lt;br&gt;edit" style="rounded=1;whiteSpace=wrap;html=1;" vertex="1" parent="1">
                    <mxGeometry x="353" y="889" width="120" height="60" as="geometry"/>
                </mxCell>
            </root>
        </mxGraphModel>
    </diagram>
</mxfile>